<svg id="fox-news-channel" xmlns="http://www.w3.org/2000/svg" width="96" height="96" viewBox="0 0 96 96">
  <defs>
    <style>
      .cls-1 {
        fill: #fff;
      }

      .cls-2 {
        fill: #036;
      }

      .cls-3 {
        fill: #c20017;
      }
    </style>
  </defs>
  <title>fox-news-logo-bg</title>
  <rect id="bg" class="cls-1" width="96" height="96"/>
  <path id="bg-top" class="cls-2" d="M3,3H93V76H3Z"/>
  <path id="bg-bottom" class="cls-3" d="M3,77H93V93H3Z"/>
  <path id="kliegs" class="cls-1" d="M93,55.25h-.17a72.92,72.92,0,0,0-3.39-7.16h1.11q1.31,2.51,2.45,5.1ZM3,13A71.94,71.94,0,0,1,16.62,9.86L17.94,3H28.63l-2.4,6.22a72.53,72.53,0,0,1,8.61.5L38.17,3H49.92l-5.6,8.5a72.12,72.12,0,0,1,20.94,9.16Q67.18,21.9,69,23.25H67.3A71.84,71.84,0,0,0,43.75,12.38L36.91,23H32v7.23L19.88,50H16v6.61L3.58,76H3.19l31.2-65.34a70.54,70.54,0,0,0-8.5-.46L3.09,76H3m0-1.22L16.4,10.89A70.83,70.83,0,0,0,3.06,14.1H3M3.58,76Zm-.4,0Z"/>
  <path id="fox-news" class="cls-1" d="M40,39.68h6.57V33.54H40V30.61h8l-.44-6.16H33.31V47H40Zm27.81,7.25H75l3.28-5.53,3.36,5.54H89L81.9,35.26l6.39-10.77H81l-2.75,4.68L75.4,24.48H68l6.58,10.84Zm-8.37.25a11.54,11.54,0,0,0,11.7-11.35,11.73,11.73,0,0,0-23.44,0A11.54,11.54,0,0,0,59.42,47.18Zm-2.07-16.3a2.09,2.09,0,0,1,2-2.07,2.15,2.15,0,0,1,2.11,2.07v9.57a2.06,2.06,0,0,1-4.11,0Zm-15.85,33h6.81V59.32H41.52V56.25h8.29V51.37H36.27V72.45H49.92V67.38h-8.4Zm29.3-12.46L68.21,63.44,65.66,51.37h-4.5L58.73,63.56,56.2,51.37H50.83L55.7,72.45h4.9L63,60.37l2.47,12.08h4.79l4.9-21.08ZM88.6,60.89c-1.4-1.29-3-1.63-4.8-2.14-2.13-.6-3.3-.66-3.3-1.9a1.67,1.67,0,0,1,1.82-1.5h0a2.76,2.76,0,0,1,2.91,2.11l4.6-1.53a7.07,7.07,0,0,0-7.14-5.24c-4.8,0-7.74,3-7.74,6.92,0,3.43,2,5.12,6,6.32,2.39.72,3.66.66,3.66,2.2,0,.81-.75,1.44-2,1.44A3.12,3.12,0,0,1,79.2,65l-5.06,1.11c.86,4,3.84,6.38,8.41,6.38a8,8,0,0,0,6-2.47,6.79,6.79,0,0,0,1.77-4.64,5.85,5.85,0,0,0-1.73-4.49ZM29.72,62,23.44,51.46H17.35v21H22.7V60.19l7.17,12.24h5.07v-21h-5.2Z"/>
  <path id="channel" class="cls-1" d="M11.65,84.23A1.22,1.22,0,0,1,13,85h3c-.19-1.42-1.8-2.27-4.31-2.27C8.82,82.77,7,84,7,86c0,1.82,1.79,3,4.51,3,2.51,0,4.15-.87,4.45-2.35H13c-.17.57-.64.85-1.41.85a1.39,1.39,0,0,1-1.54-1.59A1.49,1.49,0,0,1,11.65,84.23Zm29.2,3.44V85.46a2.12,2.12,0,0,0-.6-1.87,5.45,5.45,0,0,0-3.35-.76c-2.59,0-4,.63-4.29,2h2.75c.12-.43.62-.66,1.48-.66s1.18.18,1.18.52v.14c0,.45-1.13.36-3.24.68-1.61.24-2.42.84-2.42,1.81S33.42,89,35.21,89a5.16,5.16,0,0,0,2.9-.79,3.14,3.14,0,0,0,.15.6h3v-.22c-.26-.1-.4-.41-.4-.93ZM38,86.73c0,.62-.72,1-1.73,1-.67,0-1.1-.29-1.1-.69s.31-.53,1-.65A10.31,10.31,0,0,0,38,86.06Zm13.46-3.89a3.64,3.64,0,0,0-2.76.94V83H45.8v5.83h3V85.7c0-1,.43-1.41,1.51-1.41s1.25.52,1.25,1.59v2.93h3V85c0-1.47-.86-2.16-3.07-2.16Zm-25.94.08a3.89,3.89,0,0,0-2.8.91V81h-3v7.9h3V85.79c0-1,.43-1.41,1.51-1.41s1.25.52,1.25,1.59V88.9h3v-4c0-1.3-1-2-2.94-2Zm40-.08a3.64,3.64,0,0,0-2.76.94V83H59.91v5.83h3V85.7c0-1,.43-1.41,1.51-1.41s1.25.52,1.25,1.59v2.93h3V85c0-1.47-.87-2.16-3.08-2.16Zm11.66-.06c-2.78,0-4.58,1.19-4.58,3.14S74.44,89,77.25,89c2.33,0,4-.74,4.5-2H78.88c-.21.42-.72.64-1.53.64-1.06,0-1.63-.44-1.63-1.26h6.16a2.3,2.3,0,0,0,0-.34c0-2-1.76-3.26-4.63-3.26Zm-1.61,2.49c.12-.78.74-1.2,1.7-1.2s1.68.44,1.7,1.2ZM86,81v7.9h3V81Z"/>
</svg>
